<svg width="664" height="240" fill="#c9d1d9" xmlns="http://www.w3.org/2000/svg" xmlns:xlink="http://www.w3.org/1999/xlink" style="color-scheme: light dark" data-dark-background="#080b16" data-light-background="#f6f8fa"><defs><linearGradient id="gSky" x1="0" y1="0" x2="0" y2="1"><stop offset="0%" stop-color="#0b1020"/><stop offset="100%" stop-color="#070a12"/></linearGradient><linearGradient id="gCard" x1="0" y1="0" x2="0" y2="1"><stop offset="0%" stop-color="#0b1020"/><stop offset="100%" stop-color="#05070d"/></linearGradient><radialGradient id="gAmbient" cx="50%" cy="40%" r="62%"><stop offset="0%" stop-color="#1e4a7a" stop-opacity="0.45"/><stop offset="60%" stop-color="#0e2440" stop-opacity="0.15"/><stop offset="100%" stop-color="#000000" stop-opacity="0"/></radialGradient><filter id="fSoft" filterUnits="userSpaceOnUse" x="-80" y="-80" width="820" height="400"><feGaussianBlur in="SourceAlpha" stdDeviation="3"/><feOffset dx="0" dy="4" result="off"/><feFlood flood-color="#000000" flood-opacity="0.5"/><feComposite in2="off" operator="in" result="s"/><feMerge><feMergeNode in="s"/><feMergeNode in="SourceGraphic"/></feMerge></filter></defs><rect x="0" y="0" width="664" height="240" fill="url(#gCard)"/><rect x="0" y="0" width="664" height="240" fill="url(#gAmbient)"/><rect x="0.5" y="0.5" width="663" height="239" fill="none" stroke="#1d2a3a" stroke-width="1"/><g opacity="0.85" transform="translate(90,56)"><ellipse cx="-16" cy="2" rx="10" ry="7.0" fill="#dfe9f5"/><ellipse cx="-6" cy="-6" rx="12" ry="8.4" fill="#dfe9f5"/><ellipse cx="8" cy="-3" rx="13" ry="9.1" fill="#dfe9f5"/><ellipse cx="18" cy="3" rx="9" ry="6.3" fill="#dfe9f5"/></g><g opacity="0.85" transform="translate(250,44)"><ellipse cx="-16" cy="2" rx="10" ry="7.0" fill="#dfe9f5"/><ellipse cx="-6" cy="-6" rx="12" ry="8.4" fill="#dfe9f5"/><ellipse cx="8" cy="-3" rx="13" ry="9.1" fill="#dfe9f5"/><ellipse cx="18" cy="3" rx="9" ry="6.3" fill="#dfe9f5"/></g><g opacity="0.85" transform="translate(470,60)"><ellipse cx="-16" cy="2" rx="10" ry="7.0" fill="#dfe9f5"/><ellipse cx="-6" cy="-6" rx="12" ry="8.4" fill="#dfe9f5"/><ellipse cx="8" cy="-3" rx="13" ry="9.1" fill="#dfe9f5"/><ellipse cx="18" cy="3" rx="9" ry="6.3" fill="#dfe9f5"/></g><g opacity="0.85" transform="translate(600,48)"><ellipse cx="-16" cy="2" rx="10" ry="7.0" fill="#dfe9f5"/><ellipse cx="-6" cy="-6" rx="12" ry="8.4" fill="#dfe9f5"/><ellipse cx="8" cy="-3" rx="13" ry="9.1" fill="#dfe9f5"/><ellipse cx="18" cy="3" rx="9" ry="6.3" fill="#dfe9f5"/></g><g transform="translate(140,28)"><path d="M0,-3 L1.2,-0.4 L3.6,0 L1.2,0.6 L0,3 L-1.2,0.6 L-3.6,0 L-1.2,-0.4 Z" fill="#fff3a0"/><animate attributeName="opacity" values="1;0.3;1" dur="1.8s" begin="0.0s" repeatCount="indefinite"/></g><g transform="translate(330,20)"><path d="M0,-2.5 L1.2,-0.4 L3.6,0 L1.2,0.6 L0,2.5 L-1.2,0.6 L-3.6,0 L-1.2,-0.4 Z" fill="#fff3a0"/><animate attributeName="opacity" values="1;0.3;1" dur="1.8s" begin="0.6s" repeatCount="indefinite"/></g><g transform="translate(560,32)"><path d="M0,-2.8 L1.2,-0.4 L3.6,0 L1.2,0.6 L0,2.8 L-1.2,0.6 L-3.6,0 L-1.2,-0.4 Z" fill="#fff3a0"/><animate attributeName="opacity" values="1;0.3;1" dur="1.8s" begin="1.1s" repeatCount="indefinite"/></g><g transform="translate(80,18)"><path d="M0,-2 L1.2,-0.4 L3.6,0 L1.2,0.6 L0,2 L-1.2,0.6 L-3.6,0 L-1.2,-0.4 Z" fill="#fff3a0"/><animate attributeName="opacity" values="1;0.3;1" dur="1.8s" begin="0.3s" repeatCount="indefinite"/></g><g opacity="0.55"><path d="M0,168 Q60,128 120,160 Q180,196 240,156 Q300,118 360,160 Q420,200 480,154 Q540,120 600,160 Q660,196 700,168 L700,200 L0,200 Z" fill="#2a4a6a"/><path d="M0,180 Q80,150 160,176 Q240,202 320,170 Q400,142 480,176 Q560,204 640,172 Q680,158 700,176 L700,200 L0,200 Z" fill="#1d3a5a"/></g><rect x="0" y="204" width="664" height="16" fill="#8a4f1f"/><rect x="0" y="204" width="664" height="4" fill="#c07a38"/><rect x="0" y="218" width="664" height="2" fill="#5a3314"/><polygon points="-15.0,186.0 2.4,168.7 19.7,186.0 2.4,203.3" fill="#5fd14a"/><polygon points="-15.0,186.0 2.4,168.7 19.7,186.0 2.4,203.3" fill="#ffffff" opacity="0.18"/><polygon points="-15.0,186.0 19.7,186.0 19.7,220.0 -15.0,220.0" fill="#2f9f30"/><polygon points="19.7,186.0 35.7,178.0 35.7,212.0 19.7,220.0" fill="#216f22"/><polygon points="-15.0,186.0 19.7,186.0 19.7,220.0 -15.0,220.0" fill="#8a4f1f" transform="translate(0,18)" opacity="0.0"/><polygon points="19.7,186.0 37.1,168.7 54.4,186.0 37.1,203.3" fill="#5fd14a"/><polygon points="19.7,186.0 37.1,168.7 54.4,186.0 37.1,203.3" fill="#ffffff" opacity="0.18"/><polygon points="19.7,186.0 54.4,186.0 54.4,220.0 19.7,220.0" fill="#2f9f30"/><polygon points="54.4,186.0 70.4,178.0 70.4,212.0 54.4,220.0" fill="#216f22"/><polygon points="19.7,186.0 54.4,186.0 54.4,220.0 19.7,220.0" fill="#8a4f1f" transform="translate(0,18)" opacity="0.0"/><polygon points="54.4,186.0 71.8,168.7 89.1,186.0 71.8,203.3" fill="#5fd14a"/><polygon points="54.4,186.0 71.8,168.7 89.1,186.0 71.8,203.3" fill="#ffffff" opacity="0.18"/><polygon points="54.4,186.0 89.1,186.0 89.1,220.0 54.4,220.0" fill="#2f9f30"/><polygon points="89.1,186.0 105.1,178.0 105.1,212.0 89.1,220.0" fill="#216f22"/><polygon points="54.4,186.0 89.1,186.0 89.1,220.0 54.4,220.0" fill="#8a4f1f" transform="translate(0,18)" opacity="0.0"/><polygon points="89.1,186.0 106.5,168.7 123.8,186.0 106.5,203.3" fill="#5fd14a"/><polygon points="89.1,186.0 106.5,168.7 123.8,186.0 106.5,203.3" fill="#ffffff" opacity="0.18"/><polygon points="89.1,186.0 123.8,186.0 123.8,220.0 89.1,220.0" fill="#2f9f30"/><polygon points="123.8,186.0 139.8,178.0 139.8,212.0 123.8,220.0" fill="#216f22"/><polygon points="89.1,186.0 123.8,186.0 123.8,220.0 89.1,220.0" fill="#8a4f1f" transform="translate(0,18)" opacity="0.0"/><polygon points="123.8,186.0 141.2,168.7 158.5,186.0 141.2,203.3" fill="#5fd14a"/><polygon points="123.8,186.0 141.2,168.7 158.5,186.0 141.2,203.3" fill="#ffffff" opacity="0.18"/><polygon points="123.8,186.0 158.5,186.0 158.5,220.0 123.8,220.0" fill="#2f9f30"/><polygon points="158.5,186.0 174.5,178.0 174.5,212.0 158.5,220.0" fill="#216f22"/><polygon points="123.8,186.0 158.5,186.0 158.5,220.0 123.8,220.0" fill="#8a4f1f" transform="translate(0,18)" opacity="0.0"/><polygon points="158.5,186.0 175.8,168.7 193.2,186.0 175.8,203.3" fill="#5fd14a"/><polygon points="158.5,186.0 175.8,168.7 193.2,186.0 175.8,203.3" fill="#ffffff" opacity="0.18"/><polygon points="158.5,186.0 193.2,186.0 193.2,220.0 158.5,220.0" fill="#2f9f30"/><polygon points="193.2,186.0 209.2,178.0 209.2,212.0 193.2,220.0" fill="#216f22"/><polygon points="158.5,186.0 193.2,186.0 193.2,220.0 158.5,220.0" fill="#8a4f1f" transform="translate(0,18)" opacity="0.0"/><polygon points="193.2,186.0 210.6,168.7 227.9,186.0 210.6,203.3" fill="#5fd14a"/><polygon points="193.2,186.0 210.6,168.7 227.9,186.0 210.6,203.3" fill="#ffffff" opacity="0.18"/><polygon points="193.2,186.0 227.9,186.0 227.9,220.0 193.2,220.0" fill="#2f9f30"/><polygon points="227.9,186.0 243.9,178.0 243.9,212.0 227.9,220.0" fill="#216f22"/><polygon points="193.2,186.0 227.9,186.0 227.9,220.0 193.2,220.0" fill="#8a4f1f" transform="translate(0,18)" opacity="0.0"/><polygon points="227.9,186.0 245.3,168.7 262.6,186.0 245.3,203.3" fill="#5fd14a"/><polygon points="227.9,186.0 245.3,168.7 262.6,186.0 245.3,203.3" fill="#ffffff" opacity="0.18"/><polygon points="227.9,186.0 262.6,186.0 262.6,220.0 227.9,220.0" fill="#2f9f30"/><polygon points="262.6,186.0 278.6,178.0 278.6,212.0 262.6,220.0" fill="#216f22"/><polygon points="227.9,186.0 262.6,186.0 262.6,220.0 227.9,220.0" fill="#8a4f1f" transform="translate(0,18)" opacity="0.0"/><polygon points="262.6,186.0 280.0,168.7 297.3,186.0 280.0,203.3" fill="#5fd14a"/><polygon points="262.6,186.0 280.0,168.7 297.3,186.0 280.0,203.3" fill="#ffffff" opacity="0.18"/><polygon points="262.6,186.0 297.3,186.0 297.3,220.0 262.6,220.0" fill="#2f9f30"/><polygon points="297.3,186.0 313.3,178.0 313.3,212.0 297.3,220.0" fill="#216f22"/><polygon points="262.6,186.0 297.3,186.0 297.3,220.0 262.6,220.0" fill="#8a4f1f" transform="translate(0,18)" opacity="0.0"/><polygon points="297.3,186.0 314.7,168.7 332.0,186.0 314.7,203.3" fill="#5fd14a"/><polygon points="297.3,186.0 314.7,168.7 332.0,186.0 314.7,203.3" fill="#ffffff" opacity="0.18"/><polygon points="297.3,186.0 332.0,186.0 332.0,220.0 297.3,220.0" fill="#2f9f30"/><polygon points="332.0,186.0 348.0,178.0 348.0,212.0 332.0,220.0" fill="#216f22"/><polygon points="297.3,186.0 332.0,186.0 332.0,220.0 297.3,220.0" fill="#8a4f1f" transform="translate(0,18)" opacity="0.0"/><polygon points="332.0,186.0 349.4,168.7 366.7,186.0 349.4,203.3" fill="#5fd14a"/><polygon points="332.0,186.0 349.4,168.7 366.7,186.0 349.4,203.3" fill="#ffffff" opacity="0.18"/><polygon points="332.0,186.0 366.7,186.0 366.7,220.0 332.0,220.0" fill="#2f9f30"/><polygon points="366.7,186.0 382.7,178.0 382.7,212.0 366.7,220.0" fill="#216f22"/><polygon points="332.0,186.0 366.7,186.0 366.7,220.0 332.0,220.0" fill="#8a4f1f" transform="translate(0,18)" opacity="0.0"/><polygon points="366.7,186.0 384.1,168.7 401.4,186.0 384.1,203.3" fill="#5fd14a"/><polygon points="366.7,186.0 384.1,168.7 401.4,186.0 384.1,203.3" fill="#ffffff" opacity="0.18"/><polygon points="366.7,186.0 401.4,186.0 401.4,220.0 366.7,220.0" fill="#2f9f30"/><polygon points="401.4,186.0 417.4,178.0 417.4,212.0 401.4,220.0" fill="#216f22"/><polygon points="366.7,186.0 401.4,186.0 401.4,220.0 366.7,220.0" fill="#8a4f1f" transform="translate(0,18)" opacity="0.0"/><polygon points="401.4,186.0 418.8,168.7 436.1,186.0 418.8,203.3" fill="#5fd14a"/><polygon points="401.4,186.0 418.8,168.7 436.1,186.0 418.8,203.3" fill="#ffffff" opacity="0.18"/><polygon points="401.4,186.0 436.1,186.0 436.1,220.0 401.4,220.0" fill="#2f9f30"/><polygon points="436.1,186.0 452.1,178.0 452.1,212.0 436.1,220.0" fill="#216f22"/><polygon points="401.4,186.0 436.1,186.0 436.1,220.0 401.4,220.0" fill="#8a4f1f" transform="translate(0,18)" opacity="0.0"/><polygon points="436.1,186.0 453.5,168.7 470.8,186.0 453.5,203.3" fill="#5fd14a"/><polygon points="436.1,186.0 453.5,168.7 470.8,186.0 453.5,203.3" fill="#ffffff" opacity="0.18"/><polygon points="436.1,186.0 470.8,186.0 470.8,220.0 436.1,220.0" fill="#2f9f30"/><polygon points="470.8,186.0 486.8,178.0 486.8,212.0 470.8,220.0" fill="#216f22"/><polygon points="436.1,186.0 470.8,186.0 470.8,220.0 436.1,220.0" fill="#8a4f1f" transform="translate(0,18)" opacity="0.0"/><polygon points="470.8,186.0 488.2,168.7 505.5,186.0 488.2,203.3" fill="#5fd14a"/><polygon points="470.8,186.0 488.2,168.7 505.5,186.0 488.2,203.3" fill="#ffffff" opacity="0.18"/><polygon points="470.8,186.0 505.5,186.0 505.5,220.0 470.8,220.0" fill="#2f9f30"/><polygon points="505.5,186.0 521.5,178.0 521.5,212.0 505.5,220.0" fill="#216f22"/><polygon points="470.8,186.0 505.5,186.0 505.5,220.0 470.8,220.0" fill="#8a4f1f" transform="translate(0,18)" opacity="0.0"/><polygon points="505.5,186.0 522.9,168.7 540.2,186.0 522.9,203.3" fill="#5fd14a"/><polygon points="505.5,186.0 522.9,168.7 540.2,186.0 522.9,203.3" fill="#ffffff" opacity="0.18"/><polygon points="505.5,186.0 540.2,186.0 540.2,220.0 505.5,220.0" fill="#2f9f30"/><polygon points="540.2,186.0 556.2,178.0 556.2,212.0 540.2,220.0" fill="#216f22"/><polygon points="505.5,186.0 540.2,186.0 540.2,220.0 505.5,220.0" fill="#8a4f1f" transform="translate(0,18)" opacity="0.0"/><polygon points="540.2,186.0 557.6,168.7 574.9,186.0 557.6,203.3" fill="#5fd14a"/><polygon points="540.2,186.0 557.6,168.7 574.9,186.0 557.6,203.3" fill="#ffffff" opacity="0.18"/><polygon points="540.2,186.0 574.9,186.0 574.9,220.0 540.2,220.0" fill="#2f9f30"/><polygon points="574.9,186.0 590.9,178.0 590.9,212.0 574.9,220.0" fill="#216f22"/><polygon points="540.2,186.0 574.9,186.0 574.9,220.0 540.2,220.0" fill="#8a4f1f" transform="translate(0,18)" opacity="0.0"/><polygon points="574.9,186.0 592.3,168.7 609.6,186.0 592.3,203.3" fill="#5fd14a"/><polygon points="574.9,186.0 592.3,168.7 609.6,186.0 592.3,203.3" fill="#ffffff" opacity="0.18"/><polygon points="574.9,186.0 609.6,186.0 609.6,220.0 574.9,220.0" fill="#2f9f30"/><polygon points="609.6,186.0 625.6,178.0 625.6,212.0 609.6,220.0" fill="#216f22"/><polygon points="574.9,186.0 609.6,186.0 609.6,220.0 574.9,220.0" fill="#8a4f1f" transform="translate(0,18)" opacity="0.0"/><polygon points="609.6,186.0 627.0,168.7 644.3,186.0 627.0,203.3" fill="#5fd14a"/><polygon points="609.6,186.0 627.0,168.7 644.3,186.0 627.0,203.3" fill="#ffffff" opacity="0.18"/><polygon points="609.6,186.0 644.3,186.0 644.3,220.0 609.6,220.0" fill="#2f9f30"/><polygon points="644.3,186.0 660.3,178.0 660.3,212.0 644.3,220.0" fill="#216f22"/><polygon points="609.6,186.0 644.3,186.0 644.3,220.0 609.6,220.0" fill="#8a4f1f" transform="translate(0,18)" opacity="0.0"/><polygon points="644.3,186.0 661.7,168.7 679.0,186.0 661.7,203.3" fill="#5fd14a"/><polygon points="644.3,186.0 661.7,168.7 679.0,186.0 661.7,203.3" fill="#ffffff" opacity="0.18"/><polygon points="644.3,186.0 679.0,186.0 679.0,220.0 644.3,220.0" fill="#2f9f30"/><polygon points="679.0,186.0 695.0,178.0 695.0,212.0 679.0,220.0" fill="#216f22"/><polygon points="644.3,186.0 679.0,186.0 679.0,220.0 644.3,220.0" fill="#8a4f1f" transform="translate(0,18)" opacity="0.0"/><g filter="url(#fSoft)"><polygon points="163.0,120.0 180.0,103.0 197.0,120.0 180.0,137.0" fill="#b3562a"/><polygon points="163.0,120.0 197.0,120.0 197.0,154.0 163.0,154.0" fill="#8a3d1e"/><polygon points="197.0,120.0 213.0,112.0 213.0,146.0 197.0,154.0" fill="#642d16"/><polygon points="163.0,120.0 180.0,103.0 197.0,120.0 180.0,137.0" fill="#ffffff" opacity="0.22"/><line x1="163.0" y1="125.61" x2="197.0" y2="125.61" stroke="#3a1a08" stroke-width="1.4" opacity="0.55"/><line x1="163.0" y1="131.22" x2="197.0" y2="131.22" stroke="#3a1a08" stroke-width="1.4" opacity="0.55"/><line x1="180" y1="125.61" x2="180" y2="131.22" stroke="#3a1a08" stroke-width="1.4" opacity="0.55"/><line x1="163.0" y1="131.22" x2="163.0" y2="154" stroke="#3a1a08" stroke-width="1.4" opacity="0.55"/><line x1="197.0" y1="131.22" x2="197.0" y2="154" stroke="#3a1a08" stroke-width="1.4" opacity="0.55"/></g><g filter="url(#fSoft)"><polygon points="201.0,120.0 218.0,103.0 235.0,120.0 218.0,137.0" fill="#b3562a"/><polygon points="201.0,120.0 235.0,120.0 235.0,154.0 201.0,154.0" fill="#8a3d1e"/><polygon points="235.0,120.0 251.0,112.0 251.0,146.0 235.0,154.0" fill="#642d16"/><polygon points="201.0,120.0 218.0,103.0 235.0,120.0 218.0,137.0" fill="#ffffff" opacity="0.22"/><line x1="201.0" y1="125.61" x2="235.0" y2="125.61" stroke="#3a1a08" stroke-width="1.4" opacity="0.55"/><line x1="201.0" y1="131.22" x2="235.0" y2="131.22" stroke="#3a1a08" stroke-width="1.4" opacity="0.55"/><line x1="218" y1="125.61" x2="218" y2="131.22" stroke="#3a1a08" stroke-width="1.4" opacity="0.55"/><line x1="201.0" y1="131.22" x2="201.0" y2="154" stroke="#3a1a08" stroke-width="1.4" opacity="0.55"/><line x1="235.0" y1="131.22" x2="235.0" y2="154" stroke="#3a1a08" stroke-width="1.4" opacity="0.55"/></g><g filter="url(#fSoft)"><polygon points="239.0,120.0 256.0,103.0 273.0,120.0 256.0,137.0" fill="#ffc24a"/><polygon points="239.0,120.0 273.0,120.0 273.0,154.0 239.0,154.0" fill="#e08a1a"/><polygon points="273.0,120.0 289.0,112.0 289.0,146.0 273.0,154.0" fill="#a85f0e"/><polygon points="239.0,120.0 256.0,103.0 273.0,120.0 256.0,137.0" fill="#ffffff" opacity="0.22"/><text x="256" y="128" font-family="'JetBrains Mono',monospace" font-size="20" font-weight="800" text-anchor="middle" fill="#3a1e00" stroke="#ffe9a0" stroke-width="0.5">?</text><circle cx="244" cy="128" r="2.2" fill="#3a1e00"/><circle cx="268" cy="128" r="2.2" fill="#3a1e00"/></g><g filter="url(#fSoft)"><polygon points="163.0,86.0 180.0,69.0 197.0,86.0 180.0,103.0" fill="#b3562a"/><polygon points="163.0,86.0 197.0,86.0 197.0,120.0 163.0,120.0" fill="#8a3d1e"/><polygon points="197.0,86.0 213.0,78.0 213.0,112.0 197.0,120.0" fill="#642d16"/><polygon points="163.0,86.0 180.0,69.0 197.0,86.0 180.0,103.0" fill="#ffffff" opacity="0.22"/><line x1="163.0" y1="91.61" x2="197.0" y2="91.61" stroke="#3a1a08" stroke-width="1.4" opacity="0.55"/><line x1="163.0" y1="97.22" x2="197.0" y2="97.22" stroke="#3a1a08" stroke-width="1.4" opacity="0.55"/><line x1="180" y1="91.61" x2="180" y2="97.22" stroke="#3a1a08" stroke-width="1.4" opacity="0.55"/><line x1="163.0" y1="97.22" x2="163.0" y2="120" stroke="#3a1a08" stroke-width="1.4" opacity="0.55"/><line x1="197.0" y1="97.22" x2="197.0" y2="120" stroke="#3a1a08" stroke-width="1.4" opacity="0.55"/></g><g transform="translate(120,150)"><ellipse cx="0" cy="14" rx="9" ry="2.4" fill="#000000" opacity="0.4"/><ellipse cx="0" cy="0" rx="10" ry="10" fill="#b98a00"/><ellipse cx="0" cy="0" rx="8" ry="10" fill="#ffd84a"/><ellipse cx="-3" cy="-3" rx="2.5" ry="4" fill="#fff6c8" opacity="0.85"/><animate attributeName="rx" values="10;3;10" dur="1.2s" begin="0.0s" repeatCount="indefinite"/></g><g transform="translate(330,150)"><ellipse cx="0" cy="14" rx="9" ry="2.4" fill="#000000" opacity="0.4"/><ellipse cx="0" cy="0" rx="10" ry="10" fill="#b98a00"/><ellipse cx="0" cy="0" rx="8" ry="10" fill="#ffd84a"/><ellipse cx="-3" cy="-3" rx="2.5" ry="4" fill="#fff6c8" opacity="0.85"/><animate attributeName="rx" values="10;3;10" dur="1.2s" begin="0.3s" repeatCount="indefinite"/></g><g transform="translate(360,150)"><ellipse cx="0" cy="14" rx="9" ry="2.4" fill="#000000" opacity="0.4"/><ellipse cx="0" cy="0" rx="10" ry="10" fill="#b98a00"/><ellipse cx="0" cy="0" rx="8" ry="10" fill="#ffd84a"/><ellipse cx="-3" cy="-3" rx="2.5" ry="4" fill="#fff6c8" opacity="0.85"/><animate attributeName="rx" values="10;3;10" dur="1.2s" begin="0.6s" repeatCount="indefinite"/></g><g transform="translate(430,156)"><ellipse cx="0" cy="14" rx="11" ry="2.6" fill="#000000" opacity="0.45"/><rect x="-7" y="-2" width="14" height="14" rx="3" fill="#ffe9c8"/><rect x="-7" y="-2" width="4" height="14" rx="3" fill="#ffffff" opacity="0.4"/><path d="M-12,2 Q-12,-10 0,-12 Q12,-10 12,2 Z" fill="#e0352a"/><ellipse cx="-5" cy="-7" rx="3" ry="2.4" fill="#ffffff"/><ellipse cx="5" cy="-5" rx="2.4" ry="2" fill="#ffffff"/><ellipse cx="0" cy="-2" rx="2" ry="1.6" fill="#ffffff"/></g><g transform="translate(520,128)"><rect x="0" y="0" width="34" height="60" fill="#1f7a33"/><rect x="0" y="0" width="10" height="60" fill="#2faa4a"/><rect x="26" y="0" width="8" height="60" fill="#14531f"/><rect x="-4" y="-10" width="42" height="14" rx="3" fill="#1f7a33"/><rect x="-4" y="-10" width="14" height="14" rx="3" fill="#2faa4a"/><rect x="26" y="-10" width="12" height="14" rx="3" fill="#14531f"/><rect x="-4" y="-10" width="42" height="4" fill="#ffffff" opacity="0.3"/></g><g font-family="'JetBrains Mono',monospace" font-size="12" font-weight="700"><text x="14" y="229" text-anchor="start" fill="#9fb0d4">zhouzxing/  13 commits</text><text x="650" y="229" text-anchor="end" fill="#6e7a99">3 周</text></g></svg>